<?xml version="1.0" encoding="UTF-8"?>
<svg version="1.1" xmlns="http://www.w3.org/2000/svg" width="512" height="512">
<path d="M0 0 C1.61280551 -0.00269947 3.22560943 -0.00658566 4.83840942 -0.01159668 C8.19874754 -0.01746029 11.55865735 -0.00902435 14.91894531 0.00976562 C19.22325744 0.03266471 23.52657777 0.01934412 27.83085442 -0.00452423 C31.15261324 -0.01897356 34.47413636 -0.01438222 37.79590225 -0.00401306 C39.38351688 -0.00134907 40.97115306 -0.00460404 42.55874252 -0.01393127 C44.77265083 -0.02409552 46.98494264 -0.00860572 49.19873047 0.01367188 C51.08541946 0.01844543 51.08541946 0.01844543 53.01022339 0.02331543 C56.75798549 0.62098095 57.98759277 1.48656534 60.1953125 4.53125 C60.1953125 5.52125 60.1953125 6.51125 60.1953125 7.53125 C65.4753125 7.53125 70.7553125 7.53125 76.1953125 7.53125 C76.5253125 5.88125 76.8553125 4.23125 77.1953125 2.53125 C80.90610373 0.05738918 82.77507895 0.27534754 87.20838928 0.26382446 C87.92668567 0.25929335 88.64498205 0.25476224 89.38504499 0.25009382 C91.79850961 0.23740638 94.21174981 0.239073 96.62524414 0.24072266 C98.35328462 0.23473984 100.08132242 0.22793486 101.80935669 0.22036743 C106.51012802 0.2026684 111.21082658 0.19801022 115.91162801 0.19673586 C118.85001779 0.19531514 121.78838903 0.19104689 124.72677422 0.18574142 C134.98281912 0.16722352 145.23881198 0.15907242 155.49487305 0.16064453 C165.04524129 0.16184424 174.59538291 0.14077989 184.14569384 0.1091572 C192.34967517 0.08296362 200.55358268 0.07227863 208.75760549 0.07355535 C213.65516105 0.07406437 218.55251557 0.06841539 223.45002937 0.04719925 C228.0621655 0.02776667 232.67391001 0.02772662 237.28606033 0.04223251 C238.97344093 0.04431597 240.66084634 0.03964747 242.34818459 0.0275116 C254.41175713 -0.05359005 264.23419403 0.88716408 273.375 9.546875 C281.79746545 18.72844678 283.51755396 27.46008395 283.390625 39.59375 C283.38638016 41.1415918 283.38638016 41.1415918 283.38204956 42.72070312 C283.37092502 45.99100732 283.34583476 49.26102968 283.3203125 52.53125 C283.31027272 54.75911061 283.30114862 56.98697554 283.29296875 59.21484375 C283.27101105 64.65374071 283.2376111 70.09247521 283.1953125 75.53125 C283.95569824 75.57950928 284.71608398 75.62776855 285.49951172 75.67749023 C291.95897898 76.14219648 298.06968671 76.89898988 304.3203125 78.59375 C305.12307617 78.80999023 305.92583984 79.02623047 306.75292969 79.24902344 C325.8905373 84.67521253 343.26388286 94.47526563 358.1953125 107.53125 C359.28779297 108.44197266 359.28779297 108.44197266 360.40234375 109.37109375 C385.49825765 130.53227545 400.30732472 163.11035438 404.0144043 195.3449707 C407.05188148 232.05294396 396.83724436 268.04656825 373.140625 296.45703125 C371.1953125 298.53125 371.1953125 298.53125 368.1953125 300.53125 C366.25 300.4453125 366.25 300.4453125 364.0703125 300.15625 C359.73007892 300.06375322 357.55338876 301.24903009 354.1953125 303.96875 C351.09751892 306.9810872 349.70703804 308.88573821 349.4453125 313.21875 C349.49171875 313.92386719 349.538125 314.62898438 349.5859375 315.35546875 C348.95433222 318.87351018 346.86502541 320.25560376 344.1953125 322.53125 C341.85575564 324.14082885 339.43360982 325.54007201 336.9453125 326.90625 C336.24857422 327.29127686 335.55183594 327.67630371 334.83398438 328.07299805 C320.52113091 335.80660755 305.26303952 341.7851867 288.94067383 343.07666016 C287.86368729 343.16291656 286.78670074 343.24917297 285.67707825 343.33804321 C284.4486042 343.43368057 284.4486042 343.43368057 283.1953125 343.53125 C283.20197433 344.16050385 283.20863617 344.78975769 283.21549988 345.43807983 C283.28219736 352.02491107 283.32725522 358.61164536 283.36010742 365.19873047 C283.37513474 367.65254619 283.3955623 370.10633533 283.42163086 372.56005859 C283.4582807 376.10000192 283.47510005 379.63958814 283.48828125 383.1796875 C283.50376511 384.26551117 283.51924896 385.35133484 283.53520203 386.47006226 C283.53778158 398.31320113 280.73599617 406.60582023 272.6015625 415.21875 C264.83729951 422.5435264 255.94164657 424.12980648 245.59521484 423.98535156 C243.92516388 423.98622772 243.92516388 423.98622772 242.22137451 423.98712158 C238.57433916 423.98435494 234.92814099 423.95332899 231.28125 423.921875 C228.73963874 423.91440759 226.19802169 423.90871702 223.65640259 423.90472412 C217.67127185 423.89105906 211.68649548 423.85959677 205.70150626 423.81932616 C198.88161541 423.77444479 192.06170959 423.75258053 185.24170756 423.73254442 C171.22607929 423.69085847 157.21071218 423.62060935 143.1953125 423.53125 C143.1890144 426.90793083 143.24886572 430.28038972 143.3203125 433.65625 C143.31773437 434.60757812 143.31515625 435.55890625 143.3125 436.5390625 C143.44907516 441.45576819 143.60851413 444.56433594 147.25 448.0859375 C148.70792969 449.29636719 148.70792969 449.29636719 150.1953125 450.53125 C150.1953125 451.19125 150.1953125 451.85125 150.1953125 452.53125 C150.74242685 452.52973112 151.2895412 452.52821224 151.85323477 452.52664733 C184.28686244 452.43711561 216.72045736 452.36849398 249.15418014 452.32698868 C253.04940155 452.32198592 256.94462271 452.31680862 260.83984375 452.31152344 C261.61530511 452.3104742 262.39076646 452.30942495 263.18972665 452.30834392 C275.74235545 452.29094341 288.29491091 452.25940769 300.84749621 452.22263882 C313.72967163 452.1852195 326.61180866 452.16301206 339.4940362 452.15489602 C347.44171298 452.14941029 355.38918243 452.1320904 363.33679539 452.09958413 C369.43326443 452.07592085 375.52955549 452.07343265 381.62607574 452.07881927 C384.12541734 452.07771855 386.62476676 452.0697582 389.12406158 452.0544281 C392.53721987 452.03451891 395.94949199 452.03931516 399.3626709 452.05023193 C400.35101472 452.03858057 401.33935855 452.0269292 402.35765219 452.01492476 C409.44726217 452.07619032 414.79165535 453.59411728 420.21875 458.27734375 C420.66476562 458.83550781 421.11078125 459.39367187 421.5703125 459.96875 C422.03179687 460.52433594 422.49328125 461.07992188 422.96875 461.65234375 C427.17798219 468.10024401 427.01378086 475.0722188 426.1953125 482.53125 C423.90314454 488.8666842 419.01565742 493.28214111 413.29723907 496.64868152 C410.90819302 497.65180731 409.21184775 497.77982633 406.62698746 497.77734566 C405.70985702 497.78132775 404.79272658 497.78530985 403.84780431 497.78941262 C402.84391817 497.78358693 401.84003203 497.77776125 400.8057251 497.77175903 C399.2018878 497.77432231 399.2018878 497.77432231 397.56564975 497.77693737 C393.97110788 497.78024022 390.37675133 497.76921533 386.78222656 497.75830078 C384.21024073 497.75773684 381.63825457 497.75805289 379.06626892 497.75918579 C373.52291178 497.76023477 367.97960171 497.75395683 362.43625641 497.74271011 C354.42150525 497.72645982 346.40677686 497.72124759 338.39201102 497.71873413 C325.38876918 497.71435629 312.38555243 497.70104476 299.38232422 497.68212891 C286.75048956 497.66377242 274.11866171 497.64961478 261.48681641 497.64111328 C260.70826145 497.64058783 259.9297065 497.64006239 259.12755898 497.63952102 C255.22179896 497.63691095 251.31603889 497.63438353 247.4102788 497.63189721 C215.0052718 497.61116193 182.60029563 497.57593397 150.1953125 497.53125 C149.90269531 498.15451172 149.61007813 498.77777344 149.30859375 499.41992188 C146.15971308 505.39174645 138.44706892 509.64499185 132.25390625 511.8671875 C120.9903182 514.31266639 109.133714 513.70042071 99.1953125 507.53125 C95.94034768 505.09584714 92.87572255 502.59747665 90.1953125 499.53125 C90.1953125 498.87125 90.1953125 498.21125 90.1953125 497.53125 C89.55051437 497.53791183 88.90571625 497.54457367 88.24137878 497.55143738 C81.54207333 497.61770798 74.84286069 497.66301618 68.14331055 497.69604492 C65.64164448 497.71114944 63.14000497 497.73163429 60.63842773 497.75756836 C57.04664566 497.79387775 53.45521309 497.81095975 49.86328125 497.82421875 C48.74132858 497.83970261 47.61937592 497.85518646 46.46342468 497.87113953 C44.90214592 497.87147942 44.90214592 497.87147942 43.30932617 497.87182617 C42.39221359 497.87848801 41.47510101 497.88514984 40.53019714 497.89201355 C37.71860876 497.4575944 36.87802676 496.78711963 35.1953125 494.53125 C34.7003125 493.04625 34.7003125 493.04625 34.1953125 491.53125 C28.9153125 491.20125 23.6353125 490.87125 18.1953125 490.53125 C17.5353125 492.18125 16.8753125 493.83125 16.1953125 495.53125 C13.68309191 498.04347059 12.13330442 497.78262165 8.70458984 497.82452393 C7.93888672 497.82361755 7.17318359 497.82271118 6.38427734 497.82177734 C5.57753571 497.82849457 4.77079407 497.83521179 3.93960571 497.84213257 C1.26175842 497.86119062 -1.41583902 497.86504149 -4.09375 497.8671875 C-5.95502832 497.87361297 -7.81630561 497.88034114 -9.67758179 497.88735962 C-13.58667337 497.89935398 -17.49567647 497.90303853 -21.40478516 497.90185547 C-26.40160624 497.90165283 -31.39785501 497.92888784 -36.39454079 497.96339989 C-40.24313939 497.9857036 -44.09160142 497.98969185 -47.94025803 497.98863602 C-49.78136532 497.99098933 -51.62247653 497.99979763 -53.46352005 498.01530075 C-56.0485072 498.0350192 -58.63227605 498.02909892 -61.21728516 498.01708984 C-61.9708429 498.02832886 -62.72440063 498.03956787 -63.50079346 498.05114746 C-69.85568574 497.9765757 -75.03430065 495.97004615 -79.828125 491.75 C-80.27414063 491.1828125 -80.72015625 490.615625 -81.1796875 490.03125 C-81.64117187 489.4640625 -82.10265625 488.896875 -82.578125 488.3125 C-86.98485102 481.91292336 -86.57046789 475.03116105 -85.8046875 467.53125 C-83.57177296 461.18708936 -78.51421248 456.35764679 -72.53440571 453.41346931 C-69.26915471 452.35817083 -66.56158094 452.28535683 -63.12919617 452.29074097 C-62.14273541 452.28817769 -62.14273541 452.28817769 -61.13634616 452.28556263 C-58.94063884 452.28227781 -56.74523955 452.29325454 -54.54956055 452.30419922 C-52.97248848 452.30476355 -51.39541588 452.30444634 -49.81834412 452.30331421 C-45.54187097 452.30274056 -41.26551009 452.31449692 -36.98906302 452.32846212 C-32.51808984 452.34096736 -28.04711407 452.34213982 -23.5761261 452.34451294 C-15.11185162 452.35072831 -6.64762882 452.36713992 1.81662291 452.38721192 C11.45379129 452.40956912 21.09096215 452.4205639 30.72815001 452.43060279 C50.55056635 452.45150608 70.37293617 452.48668319 90.1953125 452.53125 C90.48245117 451.90379883 90.76958984 451.27634766 91.06542969 450.62988281 C92.1953125 448.53125 92.1953125 448.53125 94.2734375 446.953125 C97.39298285 443.02199062 96.8738877 438.65761565 96.9453125 433.78125 C96.97496094 432.79769531 97.00460938 431.81414062 97.03515625 430.80078125 C97.10573661 428.37752224 97.15848951 425.95521846 97.1953125 423.53125 C96.61700495 423.53493717 96.0386974 423.53862434 95.44286537 423.54242325 C81.33602653 423.63096988 67.22922965 423.69705434 53.1221714 423.73849869 C46.29993296 423.75907642 39.47788065 423.78710449 32.65576172 423.83300781 C26.06812345 423.87731207 19.48062726 423.9004095 12.89283371 423.91075897 C10.38350767 423.91813152 7.87419181 423.93252831 5.36494827 423.95417023 C1.84153933 423.98334185 -1.68107895 423.9872001 -5.20458984 423.98535156 C-6.23462128 423.99973267 -7.26465271 424.01411377 -8.32589722 424.02893066 C-18.04592431 423.9739982 -25.87074719 421.25485135 -32.984375 414.515625 C-40.39736668 406.43450961 -43.11828362 398.44118681 -43.0793457 387.52978516 C-43.08445663 386.7741478 -43.08956757 386.01851044 -43.09483337 385.23997498 C-43.10862027 382.76667132 -43.10778083 380.29364978 -43.10546875 377.8203125 C-43.10936181 376.08450214 -43.11369772 374.34869273 -43.11845398 372.61288452 C-43.12589287 368.98342799 -43.12564198 365.35406878 -43.12036133 361.72460938 C-43.11457129 357.09592704 -43.13149777 352.46764546 -43.154706 347.83902931 C-43.16950778 344.25629384 -43.17030629 340.67365343 -43.16719627 337.09089279 C-43.1677063 335.38542259 -43.17288353 333.67994661 -43.18300819 331.97450638 C-43.25646003 317.872516 -42.20634477 307.42712241 -32.2109375 296.84375 C-25.46454673 290.4792304 -18.36960051 288.29979675 -9.1796875 288.28125 C-7.05400099 288.34470333 -4.92846542 288.42108285 -2.8046875 288.53125 C-2.8046875 285.56125 -2.8046875 282.59125 -2.8046875 279.53125 C-3.69929688 279.57765625 -4.59390625 279.6240625 -5.515625 279.671875 C-15.68985743 279.97558343 -23.04546307 278.84180001 -31.0546875 272.34375 C-38.46087167 265.327365 -42.38110167 257.85813724 -43.06538391 247.63735962 C-43.08005273 246.2682388 -43.08423173 244.89897584 -43.0793457 243.52978516 C-43.08445663 242.7741478 -43.08956757 242.01851044 -43.09483337 241.23997498 C-43.10862027 238.76667132 -43.10778083 236.29364978 -43.10546875 233.8203125 C-43.10936181 232.08450214 -43.11369772 230.34869273 -43.11845398 228.61288452 C-43.12589287 224.98342799 -43.12564198 221.35406878 -43.12036133 217.72460938 C-43.11457129 213.09592704 -43.13149777 208.46764546 -43.154706 203.83902931 C-43.16950778 200.25629384 -43.17030629 196.67365343 -43.16719627 193.09089279 C-43.1677063 191.38542259 -43.17288353 189.67994661 -43.18300819 187.97450638 C-43.25646003 173.872516 -42.20634477 163.42712241 -32.2109375 152.84375 C-25.46454673 146.4792304 -18.36960051 144.29979675 -9.1796875 144.28125 C-7.05400099 144.34470333 -4.92846542 144.42108285 -2.8046875 144.53125 C-2.8046875 141.56125 -2.8046875 138.59125 -2.8046875 135.53125 C-3.69929688 135.57765625 -4.59390625 135.6240625 -5.515625 135.671875 C-15.68985743 135.97558343 -23.04546307 134.84180001 -31.0546875 128.34375 C-38.46087167 121.327365 -42.38110167 113.85813724 -43.06538391 103.63735962 C-43.08005273 102.2682388 -43.08423173 100.89897584 -43.0793457 99.52978516 C-43.08445663 98.7741478 -43.08956757 98.01851044 -43.09483337 97.23997498 C-43.10862027 94.76667132 -43.10778083 92.29364978 -43.10546875 89.8203125 C-43.10936181 88.08450214 -43.11369772 86.34869273 -43.11845398 84.61288452 C-43.12589287 80.98342799 -43.12564198 77.35406878 -43.12036133 73.72460938 C-43.11457129 69.09592704 -43.13149777 64.46764546 -43.154706 59.83902931 C-43.16950778 56.25629384 -43.17030629 52.67365343 -43.16719627 49.09089279 C-43.1677063 47.38542259 -43.17288353 45.67994661 -43.18300819 43.97450638 C-43.25646003 29.872516 -42.20634477 19.42712241 -32.2109375 8.84375 C-22.92833436 0.08657723 -12.04893092 -0.07141799 0 0 Z " fill="#010101" transform="translate(85.8046875,-0.53125)"/>
<path d="M0 0 C1.0725 0.26683594 2.145 0.53367187 3.25 0.80859375 C22.37901163 6.0831374 38.75825968 16.31313268 53 30 C53.8559375 30.804375 54.711875 31.60875 55.59375 32.4375 C75.75538828 51.87040437 88.51272413 80.16652761 89.203125 108.15234375 C89.58493021 140.84831733 82.12497318 168.5512019 61 194 C60.67 194.33 60.34 194.66 60 195 C59.95614094 197.67540249 59.95536376 200.3267852 60 203 C60 207 60 207 57.8125 209.359375 C56.884375 210.14828125 55.95625 210.9371875 55 211.75 C53.6078125 212.94882812 53.6078125 212.94882812 52.1875 214.171875 C51.1046875 215.07679688 51.1046875 215.07679688 50 216 C49.29875 215.67 48.5975 215.34 47.875 215 C44.59831959 213.86028507 42.44884792 213.60748406 39 214 C36.04015634 215.48130603 36.04015634 215.48130603 33.125 217.5625 C14.06219322 230.02236027 -7.40722222 235.39945758 -30.0625 235.25 C-31.23876953 235.25773438 -32.41503906 235.26546875 -33.62695312 235.2734375 C-41.28075053 235.25651368 -48.50181379 234.51906223 -56 233 C-57.24910156 232.75121094 -58.49820313 232.50242187 -59.78515625 232.24609375 C-80.2740559 227.19102554 -97.83444832 216.54806179 -113 202 C-113.83273437 201.23042969 -114.66546875 200.46085938 -115.5234375 199.66796875 C-133.25644319 182.78069103 -143.94886922 159.89619713 -148 136 C-148.17345947 135.06937744 -148.34691895 134.13875488 -148.52563477 133.17993164 C-149.35765577 127.60243621 -149.18455281 122.00414077 -149.1875 116.375 C-149.19974609 115.16714844 -149.21199219 113.95929688 -149.22460938 112.71484375 C-149.23717439 104.93290892 -148.55964045 97.62173356 -147 90 C-146.75121094 88.75089844 -146.50242188 87.50179687 -146.24609375 86.21484375 C-141.19102554 65.7259441 -130.54806179 48.16555168 -116 33 C-115.23042969 32.16726562 -114.46085937 31.33453125 -113.66796875 30.4765625 C-99.44572179 15.54205439 -80.69141209 5.62951106 -61 0 C-59.81470703 -0.34998047 -59.81470703 -0.34998047 -58.60546875 -0.70703125 C-40.50312806 -5.67000039 -18.04099165 -4.82345957 0 0 Z " fill="#EFEFEF" transform="translate(385,93)"/>
<path d="M0 0 C0.75928077 -0.00876451 1.51856153 -0.01752902 2.30085081 -0.02655911 C4.84701599 -0.05328389 7.39304281 -0.06568096 9.9393158 -0.07794189 C11.76440553 -0.09374815 13.58948906 -0.11028632 15.41456604 -0.12750244 C21.41095528 -0.17990236 27.40737214 -0.21055725 33.40391541 -0.23907471 C35.47027033 -0.24979644 37.53662508 -0.26055147 39.60297966 -0.27133942 C48.20118447 -0.3145943 56.79938183 -0.35206432 65.39766788 -0.3745842 C77.70804184 -0.40704127 90.01715114 -0.47334226 102.32704836 -0.58738589 C110.98880037 -0.66488644 119.65021489 -0.70386155 128.31230444 -0.71442533 C133.48256221 -0.72171995 138.65147061 -0.74562134 143.82135201 -0.8106308 C148.69008221 -0.87097538 153.55665342 -0.88335584 158.42567825 -0.85986328 C160.20624422 -0.85942325 161.98691294 -0.87591573 163.7671299 -0.91117096 C178.58943802 -1.18857842 178.58943802 -1.18857842 184.49952739 3.83669734 C186.62245451 5.8859259 188.557046 8.0836719 190.49375916 10.30780029 C210.86387661 27.42732264 237.29971399 37.46026587 263.61875916 39.44842529 C264.67063416 39.53366455 265.72250916 39.61890381 266.80625916 39.70672607 C269.36832452 39.91343817 271.93071427 40.11368121 274.49375916 40.30780029 C274.59566334 47.12122743 274.66543538 53.93445606 274.71348572 60.74847412 C274.73352916 63.063653 274.76077141 65.37878171 274.79551697 67.69378662 C274.84435457 71.0326988 274.8668014 74.37093828 274.88438416 77.71014404 C274.9050293 78.73550766 274.92567444 79.76087128 274.94694519 80.81730652 C274.94912947 87.9048974 273.95134946 94.42184027 269.08146667 99.89506531 C262.74092316 105.50821865 256.8695852 105.60105927 248.80996704 105.58195496 C247.17656292 105.58980997 247.17656292 105.58980997 245.51016074 105.59782368 C241.8545101 105.61284778 238.19899913 105.61352937 234.5433197 105.61419678 C231.9250515 105.6218166 229.30678555 105.63024379 226.68852234 105.63941956 C219.57074027 105.66225385 212.45298805 105.67018834 205.33517432 105.675246 C200.88954014 105.67850458 196.44391459 105.685028 191.99828529 105.69224739 C179.68558246 105.71181058 167.37288765 105.72821666 155.06016827 105.73112392 C154.27250416 105.73131149 153.48484006 105.73149906 152.67330735 105.73169232 C151.07657929 105.73205856 149.47985124 105.73242226 147.88312318 105.73278343 C147.09052417 105.73296624 146.29792515 105.73314905 145.48130798 105.7333374 C144.68773983 105.73351795 143.89417168 105.7336985 143.076556 105.73388452 C130.21704885 105.73742641 117.35770913 105.76445087 104.49826004 105.80183529 C91.29046921 105.83992467 78.08276145 105.85928144 64.87491447 105.85958344 C57.4612208 105.86016783 50.04772691 105.86864846 42.6340847 105.8975811 C35.66137976 105.92466819 28.68907657 105.92599446 21.71633911 105.90992546 C19.15733288 105.90810704 16.59830413 105.91483693 14.03934669 105.93074417 C10.54526126 105.95114009 7.05256946 105.94068894 3.5585022 105.92253113 C2.54633233 105.9357311 1.53416247 105.94893106 0.49132079 105.96253103 C-6.08289256 105.88452105 -10.41275789 104.53947146 -15.50624084 100.30780029 C-20.16235852 95.29351972 -20.65878754 91.33836992 -20.6832428 84.71868896 C-20.689814 83.947603 -20.69638519 83.17651703 -20.70315552 82.38206482 C-20.72286799 79.82996522 -20.73454623 77.2779244 -20.74452209 74.72576904 C-20.74859762 73.85340418 -20.75267315 72.98103931 -20.75687218 72.08223915 C-20.7777237 67.46528994 -20.79202965 62.84837038 -20.80140686 58.23138428 C-20.81247224 53.46646767 -20.8468761 48.70201792 -20.88657856 43.93726635 C-20.91274048 40.26977173 -20.92109829 36.60238846 -20.92468834 32.93480873 C-20.92955503 31.17855995 -20.94117143 29.42231618 -20.95972633 27.66615868 C-20.98411041 25.20542903 -20.98315457 22.74590904 -20.97621155 20.28509521 C-20.98902161 19.56332092 -21.00183167 18.84154663 -21.01502991 18.09790039 C-20.9631277 13.03726538 -19.65504783 10.21930409 -16.50624084 6.30780029 C-11.09641654 1.43895842 -7.22376647 0.0101508 0 0 Z " fill="#A8DAF4" transform="translate(79.50624084472656,302.69219970703125)"/>
<path d="M0 0 C5.28 0 10.56 0 16 0 C16.99 1.98 17.98 3.96 19 6 C21.91357306 7.45678653 24.46101056 7.12804352 27.71646118 7.13130188 C28.41489651 7.13341759 29.11333184 7.13553331 29.83293188 7.13771313 C32.18502351 7.14372844 34.53706173 7.14271188 36.88916016 7.1418457 C38.57103568 7.14487628 40.25291038 7.14839745 41.93478394 7.15237427 C45.56340247 7.16027296 49.19201114 7.1654119 52.82063675 7.16866493 C58.56106838 7.17456915 64.30143781 7.19110502 70.0418396 7.21000671 C72.0064716 7.21634449 73.97110363 7.22267011 75.9357357 7.22898388 C76.91980046 7.23214969 77.90386522 7.2353155 78.91775012 7.23857725 C92.28516211 7.2806594 105.65254574 7.31361733 119.02001953 7.32592773 C128.03174452 7.3343122 137.04331615 7.35681964 146.05496442 7.3952834 C150.82390196 7.41503569 155.59261029 7.42745149 160.36159134 7.42244911 C164.85146034 7.41779717 169.34089547 7.43163786 173.83067703 7.45946121 C175.47533748 7.46636455 177.12004288 7.46650878 178.76470184 7.45926094 C196.09978858 7.39060554 196.09978858 7.39060554 202.50081825 13.41174793 C208.13238328 19.66446669 208.28150059 25.32894162 208.1953125 33.33203125 C208.19106766 34.81965218 208.19106766 34.81965218 208.18673706 36.33732605 C208.17556804 39.49584159 208.15046927 42.65407057 208.125 45.8125 C208.11496597 47.95767819 208.10584086 50.10286083 208.09765625 52.24804688 C208.07563945 57.49879521 208.04219443 62.74937713 208 68 C206.99422157 68.06465454 206.99422157 68.06465454 205.96812439 68.13061523 C174.15223335 70.2077132 145.18225465 79.49174466 121 101 C120.154375 101.72574219 119.30875 102.45148438 118.4375 103.19921875 C114.14142835 106.71789591 114.14142835 106.71789591 110.83620739 111.08184719 C109 113 109 113 105.79522419 113.50615788 C104.44557575 113.52951022 103.09543811 113.53060274 101.74568176 113.5146637 C101.00147293 113.52160922 100.2572641 113.52855475 99.49050349 113.53571075 C96.98921641 113.554051 94.48887033 113.54369731 91.98754883 113.53344727 C90.19714648 113.54050248 88.4067501 113.54924582 86.61636353 113.55955505 C81.74622741 113.58211046 76.87641535 113.57909397 72.00624681 113.57023358 C67.94083081 113.56513073 63.87547609 113.57241102 59.8100664 113.57970566 C50.21568992 113.59672618 40.62147238 113.59311951 31.02709961 113.57641602 C21.13352835 113.559514 11.24039891 113.57529794 1.34687597 113.6076389 C-7.14753997 113.63435308 -15.64181853 113.6416052 -24.13627225 113.63312382 C-29.20928162 113.62819728 -34.28202547 113.63039462 -39.35500145 113.65091133 C-44.12974155 113.66929555 -48.90384827 113.66327618 -53.67855453 113.63871193 C-55.42804335 113.63371166 -57.17758061 113.63717344 -58.92703056 113.64986038 C-76.06517899 113.76427901 -76.06517899 113.76427901 -82 108 C-86.65611767 102.98571943 -87.1525467 99.03056963 -87.17700195 92.41088867 C-87.18357315 91.6398027 -87.19014435 90.86871674 -87.19691467 90.07426453 C-87.21662714 87.52216493 -87.22830539 84.9701241 -87.23828125 82.41796875 C-87.24235678 81.54560389 -87.2464323 80.67323902 -87.25063133 79.77443886 C-87.27148286 75.15748965 -87.28578881 70.54057008 -87.29516602 65.92358398 C-87.3062314 61.15866737 -87.34063525 56.39421763 -87.38033772 51.62946606 C-87.40649963 47.96197143 -87.41485744 44.29458817 -87.41844749 40.62700844 C-87.42331419 38.87075966 -87.43493058 37.11451588 -87.45348549 35.35835838 C-87.47786957 32.89762873 -87.47691372 30.43810875 -87.4699707 27.97729492 C-87.48278076 27.25552063 -87.49559082 26.53374634 -87.50878906 25.7901001 C-87.45688685 20.72946508 -86.14880698 17.9115038 -83 14 C-77.78869041 9.30982137 -74.30392782 7.75197257 -67.27539062 7.74462891 C-66.60823532 7.74100845 -65.94108002 7.737388 -65.25370789 7.73365784 C-63.80942652 7.72678016 -62.36511925 7.72425535 -60.92082214 7.72560501 C-58.63408884 7.72657187 -56.34782349 7.71361062 -54.06115723 7.69662476 C-47.56147854 7.65039343 -41.06184923 7.62573846 -34.56201172 7.61914062 C-30.5825598 7.61412753 -26.60359897 7.58989207 -22.62431335 7.55381393 C-21.10929817 7.54401432 -19.59421546 7.54168492 -18.07917786 7.54698563 C-15.96045356 7.55405253 -13.8431951 7.53678625 -11.72460938 7.51416016 C-10.51977905 7.51131012 -9.31494873 7.50846008 -8.0736084 7.50552368 C-4.38792472 6.89933052 -3.23702697 5.93604593 -1 3 C-0.67 2.01 -0.34 1.02 0 0 Z " fill="#A8DAF4" transform="translate(146,7)"/>
<path d="M0 0 C0.97292846 -0.00256327 0.97292846 -0.00256327 1.96551204 -0.00517833 C4.13668702 -0.00846991 6.30755226 0.00252474 8.47869873 0.01345825 C10.03591912 0.01402244 11.59314003 0.01370566 13.15036011 0.01257324 C17.37730772 0.01199902 21.60414201 0.02376459 25.83106327 0.03772116 C30.24865712 0.05021691 34.66625351 0.0513981 39.0838623 0.05377197 C47.44900565 0.05999014 55.81409676 0.07640552 64.1792171 0.09647095 C73.70270053 0.11881947 83.22618645 0.12982075 92.74968958 0.13986182 C112.34005252 0.16077144 131.93036843 0.19595397 151.52069092 0.24050903 C151.25867103 1.13741896 151.25867103 1.13741896 150.9913578 2.05244827 C150.19229635 4.79539819 149.39869528 7.53989982 148.60516357 10.28445435 C148.33031631 11.22491608 148.05546906 12.16537781 147.77229309 13.13433838 C144.10731513 25.84795603 143.10807687 38.3020364 143.14569092 51.49050903 C143.14623474 52.21351196 143.14677856 52.93651489 143.14733887 53.681427 C143.18620486 64.94696814 143.94060499 75.49508518 147.52069092 86.24050903 C147.77753662 87.01394653 148.03438232 87.78738403 148.29901123 88.58425903 C149.58786619 92.40037052 150.93136006 96.1890999 152.34881592 99.95925903 C153.52069092 103.24050903 153.52069092 103.24050903 153.52069092 105.24050903 C132.79751668 105.35738338 112.0743969 105.44551735 91.35095978 105.49956989 C81.7283882 105.52533611 72.10602157 105.56045638 62.48358154 105.6177063 C54.09527685 105.66758972 45.70712061 105.69981155 37.3186717 105.71095151 C32.8782205 105.71746192 28.43819394 105.73273004 23.99787903 105.76915932 C19.81502292 105.80319703 15.63276478 105.81354646 11.44978333 105.80604744 C9.91795599 105.80741853 8.38610785 105.81730508 6.85440063 105.83653641 C-8.22730808 106.01654332 -8.22730808 106.01654332 -14.47930908 100.24050903 C-19.13542675 95.22622846 -19.63185578 91.27107866 -19.65631104 84.65139771 C-19.66288223 83.88031174 -19.66945343 83.10922577 -19.67622375 82.31477356 C-19.69593623 79.76267396 -19.70761447 77.21063314 -19.71759033 74.65847778 C-19.72166586 73.78611292 -19.72574139 72.91374805 -19.72994041 72.01494789 C-19.75079194 67.39799868 -19.76509789 62.78107912 -19.7744751 58.16409302 C-19.78554048 53.39917641 -19.81994434 48.63472666 -19.8596468 43.86997509 C-19.88580871 40.20248047 -19.89416652 36.5350972 -19.89775658 32.86751747 C-19.90262327 31.11126869 -19.91423967 29.35502492 -19.93279457 27.59886742 C-19.95717865 25.13813777 -19.95622281 22.67861778 -19.94927979 20.21780396 C-19.96208984 19.49602966 -19.9748999 18.77425537 -19.98809814 18.03060913 C-19.93619593 12.96997412 -18.62811606 10.15201283 -15.47930908 6.24050903 C-10.36435529 1.63705062 -6.89951907 -0.01095162 0 0 Z " fill="#A8D9F3" transform="translate(78.47930908203125,158.75949096679688)"/>
<path d="M0 0 C9.60637141 4.16880269 14.5909963 17.2292223 19.71337891 25.92260742 C21.82342587 29.50345896 23.94167953 33.07945552 26.05859375 36.65625 C26.48244354 37.37292847 26.90629333 38.08960693 27.34298706 38.82800293 C31.03512716 45.0682045 34.76148807 51.28747282 38.5 57.5 C42.5944431 64.30860494 46.67436924 71.12552524 50.73046875 77.95703125 C51.13751541 78.64238953 51.54456207 79.3277478 51.96394348 80.03387451 C54.02143801 83.49980544 56.07506394 86.96794902 58.12231445 90.43994141 C61.63284004 96.38611261 65.16126754 102.30624868 68.875 108.12890625 C69.44259033 109.03020264 70.01018066 109.93149902 70.5949707 110.86010742 C71.61112705 112.46480259 72.64452111 114.05879801 73.69995117 115.63793945 C77.09770448 121.04062045 77.88502246 125.65631232 77 132 C75.63929152 136.48018505 73.61550151 138.59708618 69.69580078 141.16296387 C63.81941678 143.93622987 57.74557837 143.55831519 51.3671875 143.51757812 C49.99968727 143.52300654 48.6321929 143.53013322 47.26470947 143.53881836 C43.5704016 143.55696961 39.87654327 143.55001855 36.18222809 143.53730202 C32.30490461 143.52713153 28.42761805 143.53657889 24.55029297 143.54284668 C18.04062026 143.55011136 11.53112943 143.5405665 5.02148438 143.52148438 C-2.49039602 143.49971777 -10.00184205 143.50676998 -17.51371193 143.52879 C-23.97852594 143.54697777 -30.44320966 143.54948588 -36.908041 143.53903532 C-40.76251717 143.53281887 -44.61678959 143.53191348 -48.47125244 143.54518127 C-52.09613493 143.55678862 -55.72046077 143.54862617 -59.34528351 143.52560425 C-61.29982247 143.51784554 -63.25440884 143.5296313 -65.20892334 143.54211426 C-72.2805018 143.47437072 -77.00963556 142.85761942 -83 139 C-86.31062083 135.60661365 -87.29418359 132.77944319 -87.578125 128.15625 C-87.45416913 120.32572557 -83.28669982 114.46708756 -79.25 108.0625 C-78.45845787 106.76679338 -77.66925759 105.46965343 -76.88232422 104.17114258 C-75.31839641 101.59807941 -73.74238167 99.03320235 -72.15332031 96.47558594 C-69.8876656 92.82735541 -67.67686659 89.14801923 -65.47875977 85.45874023 C-64.08331781 83.11756863 -62.6770426 80.78315157 -61.26953125 78.44921875 C-58.70813462 74.19104908 -56.16904506 69.92001998 -53.63671875 65.64453125 C-53.24767868 64.98769348 -52.85863861 64.33085571 -52.45780945 63.65411377 C-52.06189102 62.98563416 -51.6659726 62.31715454 -51.25805664 61.62841797 C-44.11921497 49.5752431 -36.94749265 37.54315928 -29.6875 25.5625 C-29.33910065 24.98612793 -28.99070129 24.40975586 -28.63174438 23.81591797 C-13.11600105 -1.83778776 -13.11600105 -1.83778776 0 0 Z " fill="#FCC507" transform="translate(360,134)"/>
<path d="M0 0 C9.60637141 4.16880269 14.5909963 17.2292223 19.71337891 25.92260742 C21.82342587 29.50345896 23.94167953 33.07945552 26.05859375 36.65625 C26.48244354 37.37292847 26.90629333 38.08960693 27.34298706 38.82800293 C31.03512716 45.0682045 34.76148807 51.28747282 38.5 57.5 C42.5944431 64.30860494 46.67436924 71.12552524 50.73046875 77.95703125 C51.13751541 78.64238953 51.54456207 79.3277478 51.96394348 80.03387451 C54.02143801 83.49980544 56.07506394 86.96794902 58.12231445 90.43994141 C61.63284004 96.38611261 65.16126754 102.30624868 68.875 108.12890625 C69.44259033 109.03020264 70.01018066 109.93149902 70.5949707 110.86010742 C71.61112705 112.46480259 72.64452111 114.05879801 73.69995117 115.63793945 C77.09770448 121.04062045 77.88502246 125.65631232 77 132 C75.63929152 136.48018505 73.61550151 138.59708618 69.69580078 141.16296387 C63.81941678 143.93622987 57.74557837 143.55831519 51.3671875 143.51757812 C49.99968727 143.52300654 48.6321929 143.53013322 47.26470947 143.53881836 C43.5704016 143.55696961 39.87654327 143.55001855 36.18222809 143.53730202 C32.30490461 143.52713153 28.42761805 143.53657889 24.55029297 143.54284668 C18.04062026 143.55011136 11.53112943 143.5405665 5.02148438 143.52148438 C-2.49039602 143.49971777 -10.00184205 143.50676998 -17.51371193 143.52879 C-23.97852594 143.54697777 -30.44320966 143.54948588 -36.908041 143.53903532 C-40.76251717 143.53281887 -44.61678959 143.53191348 -48.47125244 143.54518127 C-52.09613493 143.55678862 -55.72046077 143.54862617 -59.34528351 143.52560425 C-61.29982247 143.51784554 -63.25440884 143.5296313 -65.20892334 143.54211426 C-72.2805018 143.47437072 -77.00963556 142.85761942 -83 139 C-86.31062083 135.60661365 -87.29418359 132.77944319 -87.578125 128.15625 C-87.45416913 120.32572557 -83.28669982 114.46708756 -79.25 108.0625 C-78.45845787 106.76679338 -77.66925759 105.46965343 -76.88232422 104.17114258 C-75.31839641 101.59807941 -73.74238167 99.03320235 -72.15332031 96.47558594 C-69.8876656 92.82735541 -67.67686659 89.14801923 -65.47875977 85.45874023 C-64.08331781 83.11756863 -62.6770426 80.78315157 -61.26953125 78.44921875 C-58.70813462 74.19104908 -56.16904506 69.92001998 -53.63671875 65.64453125 C-53.24767868 64.98769348 -52.85863861 64.33085571 -52.45780945 63.65411377 C-52.06189102 62.98563416 -51.6659726 62.31715454 -51.25805664 61.62841797 C-44.11921497 49.5752431 -36.94749265 37.54315928 -29.6875 25.5625 C-29.33910065 24.98612793 -28.99070129 24.40975586 -28.63174438 23.81591797 C-13.11600105 -1.83778776 -13.11600105 -1.83778776 0 0 Z M-6 15 C-7.63603899 17.32695964 -7.63603899 17.32695964 -9.31640625 20.359375 C-9.64442734 20.92650208 -9.97244843 21.49362915 -10.31040955 22.07794189 C-11.02437209 23.31366033 -11.73504855 24.55128168 -12.44287109 25.79052734 C-14.35387625 29.13499471 -16.28946747 32.46519761 -18.22265625 35.796875 C-18.6203421 36.48358276 -19.01802795 37.17029053 -19.42776489 37.87780762 C-23.35502015 44.644899 -27.41632354 51.32657052 -31.5 58 C-38.03374306 68.6942736 -44.41801385 79.4686628 -50.72827148 90.29614258 C-54.24550823 96.32679849 -57.78944481 102.3385567 -61.40234375 108.3125 C-61.75554687 108.8971553 -62.10875 109.48181061 -62.47265625 110.08418274 C-64.15288431 112.86354535 -65.8385679 115.6393875 -67.53173828 118.41088867 C-68.12067871 119.3826001 -68.70961914 120.35431152 -69.31640625 121.35546875 C-69.83662354 122.20778076 -70.35684082 123.06009277 -70.89282227 123.93823242 C-72.15770138 125.90362866 -72.15770138 125.90362866 -72 128 C-27.78 128 16.44 128 62 128 C60.52286286 124.30715714 59.08257036 121.21350881 57.12109375 117.80859375 C56.53875977 116.79651855 55.95642578 115.78444336 55.35644531 114.74169922 C54.72319336 113.65131348 54.08994141 112.56092773 53.4375 111.4375 C53.10842651 110.86888245 52.77935303 110.30026489 52.44030762 109.7144165 C46.6389008 99.69377315 40.66290408 89.78417578 34.62963867 79.90161133 C29.10468797 70.8476214 23.66051368 61.74779448 18.25 52.625 C17.44767579 51.27392385 16.64534834 49.92284961 15.84301758 48.57177734 C12.19578938 42.42489866 8.56724986 36.26830914 4.98046875 30.0859375 C4.3762207 29.04872559 3.77197266 28.01151367 3.14941406 26.94287109 C2.03682811 25.03027681 0.93035245 23.11411035 -0.16894531 21.19384766 C-0.65073242 20.36675293 -1.13251953 19.5396582 -1.62890625 18.6875 C-2.04213135 17.96949219 -2.45535645 17.25148437 -2.88110352 16.51171875 C-3.25033936 16.01285156 -3.6195752 15.51398438 -4 15 C-4.66 15 -5.32 15 -6 15 Z " fill="#040403" transform="translate(360,134)"/>
<path d="M0 0 C31.63598654 -0.11403185 63.27191467 -0.20253219 94.90805865 -0.25532665 C98.64191249 -0.26158028 102.37576591 -0.26805188 106.10961914 -0.2746582 C107.22464643 -0.27662553 107.22464643 -0.27662553 108.36219952 -0.2786326 C120.40279054 -0.30039671 132.44326235 -0.33982372 144.48378261 -0.38576398 C156.83596487 -0.43250076 169.18808464 -0.46028949 181.54035169 -0.47044247 C189.16410881 -0.47730745 196.78752901 -0.49899923 204.41118244 -0.53958233 C210.25432123 -0.56910511 216.09728654 -0.57228116 221.94050217 -0.56553841 C224.33952092 -0.56691701 226.73855212 -0.57690312 229.13749504 -0.59602737 C232.40737878 -0.62082196 235.6758087 -0.61495372 238.94572449 -0.60127258 C239.90000641 -0.61583679 240.85428832 -0.630401 241.83748788 -0.64540654 C246.37057251 -0.59396817 248.38348923 -0.45600041 252.12448597 2.31101704 C254 5 254 5 254.0625 8.625 C253 12 253 12 251.55447006 13.68838978 C247.51344389 15.76328246 243.54314809 15.401637 239.065979 15.36076355 C237.53564565 15.36460846 237.53564565 15.36460846 235.97439647 15.36853105 C232.54559724 15.3734842 229.11723543 15.3569504 225.68847656 15.34057617 C223.23471589 15.33973023 220.78095445 15.34020439 218.32719421 15.34190369 C213.03917027 15.3425875 207.75128326 15.33406198 202.46329498 15.31719017 C194.81776925 15.2928123 187.17229721 15.28499615 179.52673683 15.2812262 C167.12244906 15.2746598 154.71822047 15.25469356 142.31396484 15.22631836 C130.26416317 15.19878265 118.21437756 15.17754668 106.16455078 15.16479492 C105.42183978 15.16400675 104.67912877 15.16321858 103.91391137 15.16240653 C100.18796027 15.15849142 96.46200905 15.1547003 92.73605776 15.15097082 C61.82399548 15.11986906 30.91200672 15.0668052 0 15 C0 10.05 0 5.1 0 0 Z " fill="#427F9F" transform="translate(243,467)"/>
<path d="M0 0 C5.18220313 2.86449338 9.56083966 7.03301569 11.30311584 12.84516907 C11.76882447 15.09076973 11.9110743 17.15022815 11.95874023 19.44213867 C11.98767616 20.74951241 11.98767616 20.74951241 12.01719666 22.08329773 C12.07536868 26.06663384 12.12422067 30.04979871 12.1550293 34.03344727 C12.176586 36.12736527 12.21066107 38.22119374 12.25756836 40.31469727 C12.32487062 43.34952623 12.35207774 46.38249686 12.37109375 49.41796875 C12.39892441 50.34328903 12.42675507 51.26860931 12.45542908 52.2219696 C12.43365294 59.18642113 10.41986907 63.80782336 5.75 69 C-1.17547166 74.36240431 -7.51823276 76.0052637 -16.25 75 C-23.26436181 72.66551567 -27.43631157 68.17000307 -31.25 62 C-32.41918972 59.66162057 -32.40721315 58.20860862 -32.45874023 55.60131836 C-32.47803085 54.6895433 -32.49732147 53.77776825 -32.51719666 52.83836365 C-32.57506754 48.64659599 -32.62426701 44.45500085 -32.6550293 40.26293945 C-32.67655562 38.0583525 -32.71059405 35.85384976 -32.75756836 33.6496582 C-32.824857 30.46266698 -32.85208127 27.27744699 -32.87109375 24.08984375 C-32.89892441 23.1145018 -32.92675507 22.13915985 -32.95542908 21.13426208 C-32.93427419 14.01397256 -31.06323381 9.30101747 -26.25 4 C-18.18599966 -2.23660226 -9.58158382 -4.31968529 0 0 Z " fill="#050302" transform="translate(120.25,320)"/>
<path d="M0 0 C5.18220313 2.86449338 9.56083966 7.03301569 11.30311584 12.84516907 C11.76882447 15.09076973 11.9110743 17.15022815 11.95874023 19.44213867 C11.98767616 20.74951241 11.98767616 20.74951241 12.01719666 22.08329773 C12.07536868 26.06663384 12.12422067 30.04979871 12.1550293 34.03344727 C12.176586 36.12736527 12.21066107 38.22119374 12.25756836 40.31469727 C12.32487062 43.34952623 12.35207774 46.38249686 12.37109375 49.41796875 C12.39892441 50.34328903 12.42675507 51.26860931 12.45542908 52.2219696 C12.43365294 59.18642113 10.41986907 63.80782336 5.75 69 C-1.17547166 74.36240431 -7.51823276 76.0052637 -16.25 75 C-23.26436181 72.66551567 -27.43631157 68.17000307 -31.25 62 C-32.41918972 59.66162057 -32.40721315 58.20860862 -32.45874023 55.60131836 C-32.47803085 54.6895433 -32.49732147 53.77776825 -32.51719666 52.83836365 C-32.57506754 48.64659599 -32.62426701 44.45500085 -32.6550293 40.26293945 C-32.67655562 38.0583525 -32.71059405 35.85384976 -32.75756836 33.6496582 C-32.824857 30.46266698 -32.85208127 27.27744699 -32.87109375 24.08984375 C-32.89892441 23.1145018 -32.92675507 22.13915985 -32.95542908 21.13426208 C-32.93427419 14.01397256 -31.06323381 9.30101747 -26.25 4 C-18.18599966 -2.23660226 -9.58158382 -4.31968529 0 0 Z " fill="#050302" transform="translate(120.25,175)"/>
<path d="M0 0 C5.18220313 2.86449338 9.56083966 7.03301569 11.30311584 12.84516907 C11.76882447 15.09076973 11.9110743 17.15022815 11.95874023 19.44213867 C11.98767616 20.74951241 11.98767616 20.74951241 12.01719666 22.08329773 C12.07536868 26.06663384 12.12422067 30.04979871 12.1550293 34.03344727 C12.176586 36.12736527 12.21066107 38.22119374 12.25756836 40.31469727 C12.32487062 43.34952623 12.35207774 46.38249686 12.37109375 49.41796875 C12.39892441 50.34328903 12.42675507 51.26860931 12.45542908 52.2219696 C12.43365294 59.18642113 10.41986907 63.80782336 5.75 69 C-1.17547166 74.36240431 -7.51823276 76.0052637 -16.25 75 C-23.26436181 72.66551567 -27.43631157 68.17000307 -31.25 62 C-32.41918972 59.66162057 -32.40721315 58.20860862 -32.45874023 55.60131836 C-32.47803085 54.6895433 -32.49732147 53.77776825 -32.51719666 52.83836365 C-32.57506754 48.64659599 -32.62426701 44.45500085 -32.6550293 40.26293945 C-32.67655562 38.0583525 -32.71059405 35.85384976 -32.75756836 33.6496582 C-32.824857 30.46266698 -32.85208127 27.27744699 -32.87109375 24.08984375 C-32.89892441 23.1145018 -32.92675507 22.13915985 -32.95542908 21.13426208 C-32.93427419 14.01397256 -31.06323381 9.30101747 -26.25 4 C-18.18599966 -2.23660226 -9.58158382 -4.31968529 0 0 Z " fill="#050302" transform="translate(120.25,31)"/>
<path d="M0 0 C0.66 0 1.32 0 2 0 C3.21069336 1.6953125 3.21069336 1.6953125 4.58984375 4.125 C5.11682861 5.04249023 5.64381348 5.95998047 6.18676758 6.90527344 C7.05338013 8.43716309 7.05338013 8.43716309 7.9375 10 C9.20962997 12.21429337 10.48313977 14.42779441 11.7578125 16.640625 C12.26520714 17.52406586 12.26520714 17.52406586 12.78285217 18.425354 C16.89233243 25.57322118 21.10005176 32.66248862 25.3125 39.75 C25.71392212 40.42606293 26.11534424 41.10212585 26.52893066 41.79867554 C32.19396709 51.33674419 37.91698797 60.83792949 43.6875 70.3125 C49.15227533 79.29034518 54.59829278 88.27861011 59.97842407 97.3074646 C60.69610641 98.51071339 61.41530384 99.71305989 62.13607788 100.91445923 C63.12755889 102.56801329 64.11277312 104.22532016 65.09765625 105.8828125 C65.65976807 106.82527832 66.22187988 107.76774414 66.80102539 108.73876953 C68 111 68 111 68 113 C23.78 113 -20.44 113 -66 113 C-66 112.67 -66 112.34 -66 112 C-29.04 112 7.92 112 46 112 C40.9383384 102.70699932 40.9383384 102.70699932 35.64453125 93.55859375 C35.26051147 92.91165054 34.8764917 92.26470734 34.48083496 91.59815979 C33.26016508 89.5433439 32.03649774 87.49033499 30.8125 85.4375 C29.9669956 84.01630306 29.12153691 82.59507892 28.27612305 81.17382812 C22.25981243 71.06938068 16.18278703 61.00361048 10 51 C9.96261719 52.31355469 9.92523438 53.62710938 9.88671875 54.98046875 C9.82104343 56.71617364 9.75459663 58.45184947 9.6875 60.1875 C9.66494141 61.05181641 9.64238281 61.91613281 9.61914062 62.80664062 C9.41613371 67.62344103 9.15704637 71.11020707 6 75 C3.15916359 76.42041821 1.14522722 76.31452272 -2 76 C-4.16162109 74.66821289 -4.16162109 74.66821289 -6 72 C-6.60624453 68.33750987 -6.5570082 64.70141535 -6.5390625 60.99609375 C-6.55085541 59.92126236 -6.56264832 58.84643097 -6.57479858 57.73902893 C-6.61011459 54.30503876 -6.61923517 50.87165709 -6.625 47.4375 C-6.64132468 43.99995484 -6.66332277 40.56268303 -6.69662476 37.1252594 C-6.71630296 34.98628284 -6.72558447 32.84718072 -6.72354126 30.70811462 C-6.73050018 29.74023514 -6.73745911 28.77235565 -6.74462891 27.77514648 C-6.74588776 26.9233934 -6.74714661 26.07164032 -6.7484436 25.19407654 C-6.86427787 22.70924286 -6.86427787 22.70924286 -9 20 C-9.99 20 -10.98 20 -12 20 C-10.05351325 16.65961197 -8.09090434 13.32899133 -6.125 10 C-5.29162109 8.56914062 -5.29162109 8.56914062 -4.44140625 7.109375 C-3.90644531 6.20703125 -3.37148438 5.3046875 -2.8203125 4.375 C-2.32805176 3.53710938 -1.83579102 2.69921875 -1.32861328 1.8359375 C-0.8901709 1.23007813 -0.45172852 0.62421875 0 0 Z " fill="#F2A607" transform="translate(354,149)"/>
<path d="M0 0 C1.26762177 -0.00549866 2.53524353 -0.01099731 3.84127808 -0.0166626 C5.24353406 -0.00250689 6.64578622 0.01203233 8.04803467 0.0269165 C9.52643808 0.02804494 11.00484374 0.02741119 12.48324585 0.02514648 C16.49547402 0.02399826 20.5072244 0.0475248 24.51934147 0.07544231 C28.71269881 0.10043801 32.90606696 0.10279652 37.0994873 0.10754395 C45.03971967 0.11997913 52.97973188 0.15280801 60.91986728 0.1929419 C69.95966021 0.23764278 78.99946362 0.2596424 88.03933954 0.27972364 C106.63448861 0.32154023 125.22941947 0.39270797 143.82440186 0.48101807 C143.82440186 5.43101807 143.82440186 10.38101807 143.82440186 15.48101807 C142.50722168 15.49560059 141.1900415 15.51018311 139.83294678 15.52520752 C134.95180948 15.5831252 130.07113668 15.66035842 125.19036865 15.74346924 C123.0768385 15.77674934 120.9632188 15.80477159 118.84954834 15.82745361 C115.8134338 15.86094279 112.77814211 15.91325571 109.74237061 15.96929932 C108.79540817 15.97568924 107.84844574 15.98207916 106.87278748 15.98866272 C105.55175774 16.01835396 105.55175774 16.01835396 104.20404053 16.04864502 C103.04155037 16.06529961 103.04155037 16.06529961 101.85557556 16.08229065 C99.25701094 16.59239914 98.40019239 17.37432338 96.82440186 19.48101807 C96.49440186 20.80101807 96.16440186 22.12101807 95.82440186 23.48101807 C89.88440186 23.48101807 83.94440186 23.48101807 77.82440186 23.48101807 C76.83440186 21.00601807 76.83440186 21.00601807 75.82440186 18.48101807 C72.20406835 16.0674624 69.58299063 16.20802158 65.40301514 16.24151611 C64.64983002 16.23950195 63.8966449 16.23748779 63.12063599 16.2354126 C61.4853464 16.23186756 59.8500431 16.23263361 58.21475601 16.23718834 C55.62540118 16.24277851 53.03649481 16.23362787 50.44717407 16.21998596 C43.08542916 16.18284505 35.72383546 16.16431934 28.36199951 16.17559814 C23.8584699 16.18145208 19.35557022 16.16317427 14.85216904 16.12970924 C13.13701004 16.12175766 11.42178236 16.12302902 9.70663834 16.13373375 C7.30525611 16.14807521 4.90585094 16.13177772 2.50457764 16.10870361 C1.79790955 16.12047134 1.09124146 16.13223907 0.36315918 16.1443634 C-3.473659 16.07216758 -5.081923 15.5557018 -8.12045288 13.13319397 C-10.17559814 10.48101807 -10.17559814 10.48101807 -10.73809814 7.41851807 C-9.5516883 1.22282219 -5.85639866 -0.01958662 0 0 Z " fill="#427F9F" transform="translate(25.17559814453125,466.51898193359375)"/>
<path d="M0 0 C5.50863019 3.06132474 8.89792531 7.42085061 11.6875 13 C12.48766272 21.19407143 12.87995767 28.47653785 7.54296875 35.1953125 C1.42618033 41.14469408 -4.85069514 43.51057282 -13.328125 43.3984375 C-20.23947692 42.47571774 -25.62252546 38.39811255 -29.9375 33.0625 C-33.63331049 26.82185999 -33.42059463 19.99010379 -32.3125 13 C-29.90092119 6.4102207 -25.10701758 2.30640899 -19.01953125 -0.9609375 C-12.39307448 -3.50442596 -6.41949461 -2.8199579 0 0 Z " fill="#FAAB07" transform="translate(216.3125,454)"/>
<path d="M0 0 C7.59 0.33 15.18 0.66 23 1 C23.09211895 7.81424323 23.17167374 14.62630273 23.21972656 21.44067383 C23.23977 23.75585271 23.26701225 26.07098142 23.30175781 28.38598633 C23.35059542 31.72489851 23.37304225 35.06313799 23.390625 38.40234375 C23.41127014 39.42770737 23.43191528 40.45307098 23.45318604 41.50950623 C23.45537032 48.5970971 22.4575903 55.11403998 17.58770752 60.58726501 C12.16422906 65.38855943 7.22746803 66.3001571 0.1875 66.125 C-0.50537109 66.11597656 -1.19824219 66.10695313 -1.91210938 66.09765625 C-3.60822395 66.07426157 -5.30415871 66.03839641 -7 66 C-6.47599609 64.96939453 -6.47599609 64.96939453 -5.94140625 63.91796875 C-5.48636719 63.01691406 -5.03132813 62.11585938 -4.5625 61.1875 C-4.11003906 60.29417969 -3.65757812 59.40085937 -3.19140625 58.48046875 C-1.39962602 54.75004107 -0.86275447 51.88851869 -0.79467773 47.79418945 C-0.77473251 46.73331619 -0.75478729 45.67244293 -0.73423767 44.579422 C-0.70916893 42.86368233 -0.70916893 42.86368233 -0.68359375 41.11328125 C-0.66281265 39.94113571 -0.64203156 38.76899017 -0.62062073 37.56132507 C-0.55516182 33.81177714 -0.49625704 30.06215837 -0.4375 26.3125 C-0.39431132 23.77277909 -0.35069692 21.23306538 -0.30664062 18.69335938 C-0.19868196 12.46231118 -0.09958072 6.23121031 0 0 Z " fill="#85BEDB" transform="translate(331,342)"/>
<path d="M0 0 C17.03507178 -0.79851899 17.03507178 -0.79851899 23 4 C26.90722525 7.67561139 29.74427645 11.72709558 30.17047119 17.18179321 C30.23160156 19.90090752 30.22460133 22.6123852 30.1953125 25.33203125 C30.1924826 26.32377853 30.18965271 27.31552582 30.18673706 28.33732605 C30.17556804 31.49584159 30.15046927 34.65407057 30.125 37.8125 C30.11496597 39.95767819 30.10584086 42.10286083 30.09765625 44.24804688 C30.07734349 49.49889637 30.03818816 54.74912849 30 60 C22.41 60.33 14.82 60.66 7 61 C6.95101563 57.7721875 6.90203125 54.544375 6.8515625 51.21875 C6.79747187 48.07449924 6.74019614 44.9303214 6.68261719 41.78613281 C6.64445784 39.60975634 6.60958276 37.43331959 6.578125 35.25683594 C6.53219031 32.1189223 6.4742434 28.9814189 6.4140625 25.84375 C6.40251129 24.87884644 6.39096008 23.91394287 6.37905884 22.9197998 C6.22799214 15.92249432 5.68111254 9.08978007 1.875 3 C0.946875 1.515 0.946875 1.515 0 0 Z " fill="#85BEDB" transform="translate(324,15)"/>
<path d="M0 0 C47.19 0 94.38 0 143 0 C144.65 2.97 146.3 5.94 148 9 C99.16 9 50.32 9 0 9 C0 6.03 0 3.06 0 0 Z " fill="#427F9F" transform="translate(98,279)"/>
<path d="M0 0 C47.52 0 95.04 0 144 0 C142 5 142 5 140 9 C93.8 9 47.6 9 0 9 C0 6.03 0 3.06 0 0 Z " fill="#427F9F" transform="translate(98,135)"/>
<path d="M0 0 C1.0209375 -0.01160156 1.0209375 -0.01160156 2.0625 -0.0234375 C4.60722232 0.49987233 5.38986157 1.35444888 7 3.375 C7.38768005 5.4931488 7.38768005 5.4931488 7.40405273 7.96655273 C7.41673691 8.89439072 7.42942108 9.8222287 7.44248962 10.77818298 C7.43808617 12.27823631 7.43808617 12.27823631 7.43359375 13.80859375 C7.4388356 14.83807632 7.44407745 15.8675589 7.44947815 16.92823792 C7.45590374 19.10620217 7.45455445 21.2842011 7.44604492 23.4621582 C7.43754115 26.79636425 7.46628008 30.1288542 7.49804688 33.46289062 C7.49965909 35.57812449 7.49908097 37.69336138 7.49609375 39.80859375 C7.51294472 41.30561073 7.51294472 41.30561073 7.53013611 42.83287048 C7.4607606 49.71787764 7.4607606 49.71787764 5.15649414 53.00415039 C2.19000743 54.88989961 0.44978341 54.9499639 -3 54.375 C-5.15649414 53.00415039 -5.15649414 53.00415039 -7 50.375 C-7.59720635 46.85547651 -7.5361921 43.37087613 -7.49609375 39.80859375 C-7.49754898 38.77815445 -7.49900421 37.74771515 -7.50050354 36.68605042 C-7.49884484 34.50982838 -7.48728691 32.33359459 -7.46655273 30.1574707 C-7.43757619 26.82127246 -7.44594919 23.48666078 -7.45898438 20.15039062 C-7.45274768 18.03645059 -7.44435728 15.92251558 -7.43359375 13.80859375 C-7.43652939 12.8085582 -7.43946503 11.80852264 -7.44248962 10.77818298 C-7.42980545 9.850345 -7.41712128 8.92250702 -7.40405273 7.96655273 C-7.39864975 7.15032944 -7.39324677 6.33410614 -7.38768005 5.4931488 C-6.61442103 1.26833079 -4.06205515 -0.04615972 0 0 Z " fill="#010100" transform="translate(355,170.625)"/>
<path d="M0 0 C5.13035544 1.90715387 6.55719017 5.84599391 8.7890625 10.5703125 C11.32663664 17.75737733 11.17213083 24.95182045 8.25 32 C6.53603043 35.32387671 4.51393229 38.21671783 2 41 C-3.77430392 39.02023866 -8.35700241 35.91340694 -11.26171875 30.37890625 C-13.25527739 23.95521731 -13.38071139 16.42813616 -10.859375 10.16796875 C-7.97466932 5.59039632 -4.72406371 2.58698727 0 0 Z " fill="#FCC507" transform="translate(196,454)"/>
<path d="M0 0 C2.38640953 1.642144 3.7845309 2.93674664 4.37329102 5.84204102 C4.53069959 8.16428359 4.55423579 10.45373886 4.53125 12.78125 C4.5350769 13.63174927 4.53890381 14.48224854 4.54284668 15.35852051 C4.54556458 17.15390204 4.53821182 18.94932324 4.52148438 20.74462891 C4.50007167 23.49080793 4.52128871 26.23437097 4.546875 28.98046875 C4.5442317 30.72656827 4.53910667 32.47266616 4.53125 34.21875 C4.53934692 35.03863403 4.54744385 35.85851807 4.55578613 36.70324707 C4.4936106 40.48840622 4.441436 42.39787195 2.15429688 45.51757812 C-0.79647344 47.54807193 -2.49096944 47.58483843 -6 47 C-8.38640953 45.357856 -9.7845309 44.06325336 -10.37329102 41.15795898 C-10.53069959 38.83571641 -10.55423579 36.54626114 -10.53125 34.21875 C-10.5350769 33.36825073 -10.53890381 32.51775146 -10.54284668 31.64147949 C-10.54556458 29.84609796 -10.53821182 28.05067676 -10.52148438 26.25537109 C-10.50007167 23.50919207 -10.52128871 20.76562903 -10.546875 18.01953125 C-10.5442317 16.27343173 -10.53910667 14.52733384 -10.53125 12.78125 C-10.53934692 11.96136597 -10.54744385 11.14148193 -10.55578613 10.29675293 C-10.4936106 6.51159378 -10.441436 4.60212805 -8.15429688 1.48242188 C-5.20352656 -0.54807193 -3.50903056 -0.58483843 0 0 Z " fill="#F45531" transform="translate(113,333)"/>
<path d="M0 0 C2.38640953 1.642144 3.7845309 2.93674664 4.37329102 5.84204102 C4.53069959 8.16428359 4.55423579 10.45373886 4.53125 12.78125 C4.5350769 13.63174927 4.53890381 14.48224854 4.54284668 15.35852051 C4.54556458 17.15390204 4.53821182 18.94932324 4.52148438 20.74462891 C4.50007167 23.49080793 4.52128871 26.23437097 4.546875 28.98046875 C4.5442317 30.72656827 4.53910667 32.47266616 4.53125 34.21875 C4.53934692 35.03863403 4.54744385 35.85851807 4.55578613 36.70324707 C4.4936106 40.48840622 4.441436 42.39787195 2.15429688 45.51757812 C-0.79647344 47.54807193 -2.49096944 47.58483843 -6 47 C-8.38640953 45.357856 -9.7845309 44.06325336 -10.37329102 41.15795898 C-10.53069959 38.83571641 -10.55423579 36.54626114 -10.53125 34.21875 C-10.5350769 33.36825073 -10.53890381 32.51775146 -10.54284668 31.64147949 C-10.54556458 29.84609796 -10.53821182 28.05067676 -10.52148438 26.25537109 C-10.50007167 23.50919207 -10.52128871 20.76562903 -10.546875 18.01953125 C-10.5442317 16.27343173 -10.53910667 14.52733384 -10.53125 12.78125 C-10.53934692 11.96136597 -10.54744385 11.14148193 -10.55578613 10.29675293 C-10.4936106 6.51159378 -10.441436 4.60212805 -8.15429688 1.48242188 C-5.20352656 -0.54807193 -3.50903056 -0.58483843 0 0 Z " fill="#F45531" transform="translate(113,188)"/>
<path d="M0 0 C2.38640953 1.642144 3.7845309 2.93674664 4.37329102 5.84204102 C4.53069959 8.16428359 4.55423579 10.45373886 4.53125 12.78125 C4.5350769 13.63174927 4.53890381 14.48224854 4.54284668 15.35852051 C4.54556458 17.15390204 4.53821182 18.94932324 4.52148438 20.74462891 C4.50007167 23.49080793 4.52128871 26.23437097 4.546875 28.98046875 C4.5442317 30.72656827 4.53910667 32.47266616 4.53125 34.21875 C4.53934692 35.03863403 4.54744385 35.85851807 4.55578613 36.70324707 C4.4936106 40.48840622 4.441436 42.39787195 2.15429688 45.51757812 C-0.79647344 47.54807193 -2.49096944 47.58483843 -6 47 C-8.38640953 45.357856 -9.7845309 44.06325336 -10.37329102 41.15795898 C-10.53069959 38.83571641 -10.55423579 36.54626114 -10.53125 34.21875 C-10.5350769 33.36825073 -10.53890381 32.51775146 -10.54284668 31.64147949 C-10.54556458 29.84609796 -10.53821182 28.05067676 -10.52148438 26.25537109 C-10.50007167 23.50919207 -10.52128871 20.76562903 -10.546875 18.01953125 C-10.5442317 16.27343173 -10.53910667 14.52733384 -10.53125 12.78125 C-10.53934692 11.96136597 -10.54744385 11.14148193 -10.55578613 10.29675293 C-10.4936106 6.51159378 -10.441436 4.60212805 -8.15429688 1.48242188 C-5.20352656 -0.54807193 -3.50903056 -0.58483843 0 0 Z " fill="#F45531" transform="translate(113,44)"/>
<path d="M0 0 C3.06398451 -0.13530844 6.12197126 -0.2342407 9.1875 -0.3125 C10.05181641 -0.35439453 10.91613281 -0.39628906 11.80664062 -0.43945312 C16.33877658 -0.52627565 18.35732844 -0.47392991 22.109375 2.29296875 C24 5 24 5 24.0625 8.625 C23 12 23 12 21.54296875 13.69921875 C17.55808063 15.73757166 13.65189501 15.31429018 9.25 15.1875 C8.36183594 15.17396484 7.47367187 15.16042969 6.55859375 15.14648438 C4.37177422 15.11121309 2.18620034 15.06192752 0 15 C0.08378906 14.41992188 0.16757812 13.83984375 0.25390625 13.2421875 C0.86209421 8.57684697 1.07205665 4.64557883 0 0 Z " fill="#3A708F" transform="translate(473,467)"/>
<path d="M0 0 C3.72840605 0.62140101 4.69032348 1.55283315 7 4.5 C7.49609375 7.41015625 7.49609375 7.41015625 7.4375 10.5625 C7.43621094 11.60535156 7.43492187 12.64820313 7.43359375 13.72265625 C7 16.5 7 16.5 5.72265625 18.34765625 C3.65353274 19.73176381 2.47489857 19.90312385 0 19.875 C-0.680625 19.88273437 -1.36125 19.89046875 -2.0625 19.8984375 C-4.65958836 19.36435885 -5.49142779 18.68212432 -7 16.5 C-7.43359375 13.72265625 -7.43359375 13.72265625 -7.4375 10.5625 C-7.45683594 9.52222656 -7.47617187 8.48195312 -7.49609375 7.41015625 C-6.70784387 2.78617073 -4.58694787 0.76449131 0 0 Z " fill="#050400" transform="translate(355,231.5)"/>
<path d="M0 0 C4.62 0 9.24 0 14 0 C14 4.62 14 9.24 14 14 C9.38 14 4.76 14 0 14 C0 9.38 0 4.76 0 0 Z " fill="#3B7191" transform="translate(199,423)"/>
</svg>
